{
    "asset" : {
        "generator" : "Khronos glTF Blender I/O v3.4.50",
        "version" : "2.0"
    },
    "scene" : 0,
    "scenes" : [
        {
            "name" : "Scene",
            "nodes" : [
                0,
                1,
                2,
                3
            ]
        }
    ],
    "nodes" : [
        {
            "mesh" : 0,
            "name" : "TruckHead"
        },
        {
            "mesh" : 1,
            "name" : "Cube",
            "translation" : [
                -4.755270004272461,
                2.2791528701782227,
                0
            ]
        },
        {
            "mesh" : 2,
            "name" : "Cylinder",
            "rotation" : [
                0.7071068286895752,
                0,
                0,
                0.7071068286895752
            ],
            "translation" : [
                0,
                -0.07737865298986435,
                0
            ]
        },
        {
            "mesh" : 3,
            "name" : "Plane",
            "translation" : [
                -3.9392776489257812,
                0.052532900124788284,
                0
            ]
        }
    ],
    "materials" : [
        {
            "doubleSided" : true,
            "name" : "TruckColor",
            "pbrMetallicRoughness" : {
                "baseColorFactor" : [
                    0.6752908229827881,
                    0.8000000715255737,
                    0.29099714756011963,
                    1
                ],
                "roughnessFactor" : 0.5782122611999512
            }
        },
        {
            "doubleSided" : true,
            "name" : "CarWindow",
            "pbrMetallicRoughness" : {
                "baseColorFactor" : [
                    0.06372056156396866,
                    0.06372056156396866,
                    0.06372056156396866,
                    1
                ],
                "metallicFactor" : 0,
                "roughnessFactor" : 0
            }
        },
        {
            "doubleSided" : true,
            "name" : "TruckDark",
            "pbrMetallicRoughness" : {
                "baseColorFactor" : [
                    0.014669440686702728,
                    0.014669440686702728,
                    0.014669440686702728,
                    1
                ],
                "metallicFactor" : 0,
                "roughnessFactor" : 0.5
            }
        },
        {
            "doubleSided" : true,
            "name" : "CarLight",
            "pbrMetallicRoughness" : {
                "baseColorFactor" : [
                    0.8000000715255737,
                    0.7523578405380249,
                    0,
                    1
                ],
                "metallicFactor" : 0
            }
        },
        {
            "doubleSided" : true,
            "name" : "TruckCrate",
            "pbrMetallicRoughness" : {
                "baseColorFactor" : [
                    0.21952593326568604,
                    0.21952597796916962,
                    0.21952618658542633,
                    1
                ],
                "metallicFactor" : 0,
                "roughnessFactor" : 0.8999999761581421
            }
        },
        {
            "doubleSided" : true,
            "name" : "FruityIcon",
            "pbrMetallicRoughness" : {
                "baseColorTexture" : {
                    "index" : 0
                },
                "metallicFactor" : 0,
                "roughnessFactor" : 0.8999999761581421
            }
        },
        {
            "doubleSided" : true,
            "name" : "CarTileIron",
            "pbrMetallicRoughness" : {
                "baseColorFactor" : [
                    0.07657976448535919,
                    0.07657976448535919,
                    0.07657976448535919,
                    1
                ],
                "metallicFactor" : 0,
                "roughnessFactor" : 0.7601035833358765
            }
        },
        {
            "doubleSided" : true,
            "name" : "CarTire",
            "pbrMetallicRoughness" : {
                "baseColorFactor" : [
                    0.033296138048172,
                    0.03260079026222229,
                    0.033721208572387695,
                    1
                ],
                "metallicFactor" : 0
            }
        }
    ],
    "meshes" : [
        {
            "name" : "Plane",
            "primitives" : [
                {
                    "attributes" : {
                        "POSITION" : 0,
                        "TEXCOORD_0" : 1,
                        "NORMAL" : 2
                    },
                    "indices" : 3,
                    "material" : 0
                },
                {
                    "attributes" : {
                        "POSITION" : 4,
                        "TEXCOORD_0" : 5,
                        "NORMAL" : 6
                    },
                    "indices" : 7,
                    "material" : 1
                },
                {
                    "attributes" : {
                        "POSITION" : 8,
                        "TEXCOORD_0" : 9,
                        "NORMAL" : 10
                    },
                    "indices" : 11,
                    "material" : 2
                },
                {
                    "attributes" : {
                        "POSITION" : 12,
                        "TEXCOORD_0" : 13,
                        "NORMAL" : 14
                    },
                    "indices" : 15,
                    "material" : 3
                }
            ]
        },
        {
            "name" : "Cube",
            "primitives" : [
                {
                    "attributes" : {
                        "POSITION" : 16,
                        "TEXCOORD_0" : 17,
                        "NORMAL" : 18
                    },
                    "indices" : 19,
                    "material" : 4
                },
                {
                    "attributes" : {
                        "POSITION" : 20,
                        "TEXCOORD_0" : 21,
                        "NORMAL" : 22
                    },
                    "indices" : 23,
                    "material" : 5
                }
            ]
        },
        {
            "name" : "Cylinder.004",
            "primitives" : [
                {
                    "attributes" : {
                        "POSITION" : 24,
                        "TEXCOORD_0" : 25,
                        "NORMAL" : 26
                    },
                    "indices" : 27,
                    "material" : 6
                },
                {
                    "attributes" : {
                        "POSITION" : 28,
                        "TEXCOORD_0" : 29,
                        "NORMAL" : 30
                    },
                    "indices" : 31,
                    "material" : 7
                },
                {
                    "attributes" : {
                        "POSITION" : 32,
                        "TEXCOORD_0" : 33,
                        "NORMAL" : 34
                    },
                    "indices" : 35,
                    "material" : 2
                }
            ]
        },
        {
            "name" : "Plane.001",
            "primitives" : [
                {
                    "attributes" : {
                        "POSITION" : 36,
                        "TEXCOORD_0" : 37,
                        "NORMAL" : 38
                    },
                    "indices" : 39,
                    "material" : 2
                }
            ]
        }
    ],
    "textures" : [
        {
            "sampler" : 0,
            "source" : 0
        }
    ],
    "images" : [
        {
            "mimeType" : "image/png",
            "name" : "FruityIconBaked",
            "uri" : "FruityIconBaked.png"
        }
    ],
    "accessors" : [
        {
            "bufferView" : 0,
            "componentType" : 5126,
            "count" : 321,
            "max" : [
                1,
                3.8474793434143066,
                1.7922980785369873
            ],
            "min" : [
                -1.4801111221313477,
                0.5236192345619202,
                -1.7922980785369873
            ],
            "type" : "VEC3"
        },
        {
            "bufferView" : 1,
            "componentType" : 5126,
            "count" : 321,
            "type" : "VEC2"
        },
        {
            "bufferView" : 2,
            "componentType" : 5126,
            "count" : 321,
            "type" : "VEC3"
        },
        {
            "bufferView" : 3,
            "componentType" : 5123,
            "count" : 588,
            "type" : "SCALAR"
        },
        {
            "bufferView" : 4,
            "componentType" : 5126,
            "count" : 38,
            "max" : [
                0.8865839242935181,
                3.727165699005127,
                1.6846016645431519
            ],
            "min" : [
                -0.9505741596221924,
                1.9490773677825928,
                -1.6846016645431519
            ],
            "type" : "VEC3"
        },
        {
            "bufferView" : 5,
            "componentType" : 5126,
            "count" : 38,
            "type" : "VEC2"
        },
        {
            "bufferView" : 6,
            "componentType" : 5126,
            "count" : 38,
            "type" : "VEC3"
        },
        {
            "bufferView" : 7,
            "componentType" : 5123,
            "count" : 60,
            "type" : "SCALAR"
        },
        {
            "bufferView" : 8,
            "componentType" : 5126,
            "count" : 278,
            "max" : [
                1.1263229846954346,
                3.5317139625549316,
                1.9825353622436523
            ],
            "min" : [
                -1.3790818452835083,
                0.5092410445213318,
                -1.9825353622436523
            ],
            "type" : "VEC3"
        },
        {
            "bufferView" : 9,
            "componentType" : 5126,
            "count" : 278,
            "type" : "VEC2"
        },
        {
            "bufferView" : 10,
            "componentType" : 5126,
            "count" : 278,
            "type" : "VEC3"
        },
        {
            "bufferView" : 11,
            "componentType" : 5123,
            "count" : 444,
            "type" : "SCALAR"
        },
        {
            "bufferView" : 12,
            "componentType" : 5126,
            "count" : 8,
            "max" : [
                1.04933762550354,
                1.6493042707443237,
                1.4541122913360596
            ],
            "min" : [
                1.04933762550354,
                1.200051188468933,
                -1.4541122913360596
            ],
            "type" : "VEC3"
        },
        {
            "bufferView" : 13,
            "componentType" : 5126,
            "count" : 8,
            "type" : "VEC2"
        },
        {
            "bufferView" : 14,
            "componentType" : 5126,
            "count" : 8,
            "type" : "VEC3"
        },
        {
            "bufferView" : 15,
            "componentType" : 5123,
            "count" : 12,
            "type" : "SCALAR"
        },
        {
            "bufferView" : 16,
            "componentType" : 5126,
            "count" : 208,
            "max" : [
                3.019991397857666,
                2.8665249347686768,
                1.8851383924484253
            ],
            "min" : [
                -4.1286163330078125,
                -1.1304295063018799,
                -1.8851381540298462
            ],
            "type" : "VEC3"
        },
        {
            "bufferView" : 17,
            "componentType" : 5126,
            "count" : 208,
            "type" : "VEC2"
        },
        {
            "bufferView" : 18,
            "componentType" : 5126,
            "count" : 208,
            "type" : "VEC3"
        },
        {
            "bufferView" : 19,
            "componentType" : 5123,
            "count" : 360,
            "type" : "SCALAR"
        },
        {
            "bufferView" : 20,
            "componentType" : 5126,
            "count" : 8,
            "max" : [
                1.0685995817184448,
                2.4443511962890625,
                1.6607273817062378
            ],
            "min" : [
                -2.177224636077881,
                -0.7082556486129761,
                -1.6607271432876587
            ],
            "type" : "VEC3"
        },
        {
            "bufferView" : 21,
            "componentType" : 5126,
            "count" : 8,
            "type" : "VEC2"
        },
        {
            "bufferView" : 22,
            "componentType" : 5126,
            "count" : 8,
            "type" : "VEC3"
        },
        {
            "bufferView" : 23,
            "componentType" : 5123,
            "count" : 12,
            "type" : "SCALAR"
        },
        {
            "bufferView" : 24,
            "componentType" : 5126,
            "count" : 1152,
            "max" : [
                -0.46538016200065613,
                1.9505540132522583,
                -0.25369593501091003
            ],
            "min" : [
                -7.488075256347656,
                -1.9505541324615479,
                -0.9610444903373718
            ],
            "type" : "VEC3"
        },
        {
            "bufferView" : 25,
            "componentType" : 5126,
            "count" : 1152,
            "type" : "VEC2"
        },
        {
            "bufferView" : 26,
            "componentType" : 5126,
            "count" : 1152,
            "type" : "VEC3"
        },
        {
            "bufferView" : 27,
            "componentType" : 5123,
            "count" : 3408,
            "type" : "SCALAR"
        },
        {
            "bufferView" : 28,
            "componentType" : 5126,
            "count" : 928,
            "max" : [
                -0.30615121126174927,
                1.9505540132522583,
                -0.09446699917316437
            ],
            "min" : [
                -7.647304058074951,
                -1.9505541324615479,
                -1.120273470878601
            ],
            "type" : "VEC3"
        },
        {
            "bufferView" : 29,
            "componentType" : 5126,
            "count" : 928,
            "type" : "VEC2"
        },
        {
            "bufferView" : 30,
            "componentType" : 5126,
            "count" : 928,
            "type" : "VEC3"
        },
        {
            "bufferView" : 31,
            "componentType" : 5123,
            "count" : 2688,
            "type" : "SCALAR"
        },
        {
            "bufferView" : 32,
            "componentType" : 5126,
            "count" : 320,
            "max" : [
                -0.1770128607749939,
                2.047905921936035,
                -0.5825047492980957
            ],
            "min" : [
                -7.776442527770996,
                -2.047905921936035,
                -1.2262351512908936
            ],
            "type" : "VEC3"
        },
        {
            "bufferView" : 33,
            "componentType" : 5126,
            "count" : 320,
            "type" : "VEC2"
        },
        {
            "bufferView" : 34,
            "componentType" : 5126,
            "count" : 320,
            "type" : "VEC3"
        },
        {
            "bufferView" : 35,
            "componentType" : 5123,
            "count" : 816,
            "type" : "SCALAR"
        },
        {
            "bufferView" : 36,
            "componentType" : 5126,
            "count" : 78,
            "max" : [
                2.7800512313842773,
                1.1347452402114868,
                1.9197598695755005
            ],
            "min" : [
                -5.159096717834473,
                0.911137580871582,
                -1.9197598695755005
            ],
            "type" : "VEC3"
        },
        {
            "bufferView" : 37,
            "componentType" : 5126,
            "count" : 78,
            "type" : "VEC2"
        },
        {
            "bufferView" : 38,
            "componentType" : 5126,
            "count" : 78,
            "type" : "VEC3"
        },
        {
            "bufferView" : 39,
            "componentType" : 5123,
            "count" : 132,
            "type" : "SCALAR"
        }
    ],
    "bufferViews" : [
        {
            "buffer" : 0,
            "byteLength" : 3852,
            "byteOffset" : 0,
            "target" : 34962
        },
        {
            "buffer" : 0,
            "byteLength" : 2568,
            "byteOffset" : 3852,
            "target" : 34962
        },
        {
            "buffer" : 0,
            "byteLength" : 3852,
            "byteOffset" : 6420,
            "target" : 34962
        },
        {
            "buffer" : 0,
            "byteLength" : 1176,
            "byteOffset" : 10272,
            "target" : 34963
        },
        {
            "buffer" : 0,
            "byteLength" : 456,
            "byteOffset" : 11448,
            "target" : 34962
        },
        {
            "buffer" : 0,
            "byteLength" : 304,
            "byteOffset" : 11904,
            "target" : 34962
        },
        {
            "buffer" : 0,
            "byteLength" : 456,
            "byteOffset" : 12208,
            "target" : 34962
        },
        {
            "buffer" : 0,
            "byteLength" : 120,
            "byteOffset" : 12664,
            "target" : 34963
        },
        {
            "buffer" : 0,
            "byteLength" : 3336,
            "byteOffset" : 12784,
            "target" : 34962
        },
        {
            "buffer" : 0,
            "byteLength" : 2224,
            "byteOffset" : 16120,
            "target" : 34962
        },
        {
            "buffer" : 0,
            "byteLength" : 3336,
            "byteOffset" : 18344,
            "target" : 34962
        },
        {
            "buffer" : 0,
            "byteLength" : 888,
            "byteOffset" : 21680,
            "target" : 34963
        },
        {
            "buffer" : 0,
            "byteLength" : 96,
            "byteOffset" : 22568,
            "target" : 34962
        },
        {
            "buffer" : 0,
            "byteLength" : 64,
            "byteOffset" : 22664,
            "target" : 34962
        },
        {
            "buffer" : 0,
            "byteLength" : 96,
            "byteOffset" : 22728,
            "target" : 34962
        },
        {
            "buffer" : 0,
            "byteLength" : 24,
            "byteOffset" : 22824,
            "target" : 34963
        },
        {
            "buffer" : 0,
            "byteLength" : 2496,
            "byteOffset" : 22848,
            "target" : 34962
        },
        {
            "buffer" : 0,
            "byteLength" : 1664,
            "byteOffset" : 25344,
            "target" : 34962
        },
        {
            "buffer" : 0,
            "byteLength" : 2496,
            "byteOffset" : 27008,
            "target" : 34962
        },
        {
            "buffer" : 0,
            "byteLength" : 720,
            "byteOffset" : 29504,
            "target" : 34963
        },
        {
            "buffer" : 0,
            "byteLength" : 96,
            "byteOffset" : 30224,
            "target" : 34962
        },
        {
            "buffer" : 0,
            "byteLength" : 64,
            "byteOffset" : 30320,
            "target" : 34962
        },
        {
            "buffer" : 0,
            "byteLength" : 96,
            "byteOffset" : 30384,
            "target" : 34962
        },
        {
            "buffer" : 0,
            "byteLength" : 24,
            "byteOffset" : 30480,
            "target" : 34963
        },
        {
            "buffer" : 0,
            "byteLength" : 13824,
            "byteOffset" : 30504,
            "target" : 34962
        },
        {
            "buffer" : 0,
            "byteLength" : 9216,
            "byteOffset" : 44328,
            "target" : 34962
        },
        {
            "buffer" : 0,
            "byteLength" : 13824,
            "byteOffset" : 53544,
            "target" : 34962
        },
        {
            "buffer" : 0,
            "byteLength" : 6816,
            "byteOffset" : 67368,
            "target" : 34963
        },
        {
            "buffer" : 0,
            "byteLength" : 11136,
            "byteOffset" : 74184,
            "target" : 34962
        },
        {
            "buffer" : 0,
            "byteLength" : 7424,
            "byteOffset" : 85320,
            "target" : 34962
        },
        {
            "buffer" : 0,
            "byteLength" : 11136,
            "byteOffset" : 92744,
            "target" : 34962
        },
        {
            "buffer" : 0,
            "byteLength" : 5376,
            "byteOffset" : 103880,
            "target" : 34963
        },
        {
            "buffer" : 0,
            "byteLength" : 3840,
            "byteOffset" : 109256,
            "target" : 34962
        },
        {
            "buffer" : 0,
            "byteLength" : 2560,
            "byteOffset" : 113096,
            "target" : 34962
        },
        {
            "buffer" : 0,
            "byteLength" : 3840,
            "byteOffset" : 115656,
            "target" : 34962
        },
        {
            "buffer" : 0,
            "byteLength" : 1632,
            "byteOffset" : 119496,
            "target" : 34963
        },
        {
            "buffer" : 0,
            "byteLength" : 936,
            "byteOffset" : 121128,
            "target" : 34962
        },
        {
            "buffer" : 0,
            "byteLength" : 624,
            "byteOffset" : 122064,
            "target" : 34962
        },
        {
            "buffer" : 0,
            "byteLength" : 936,
            "byteOffset" : 122688,
            "target" : 34962
        },
        {
            "buffer" : 0,
            "byteLength" : 264,
            "byteOffset" : 123624,
            "target" : 34963
        }
    ],
    "samplers" : [
        {
            "magFilter" : 9729,
            "minFilter" : 9987
        }
    ],
    "buffers" : [
        {
            "byteLength" : 123888,
            "uri" : "Truck.bin"
        }
    ]
}
